<!-- Generated by IcoMoon.io -->
<svg version="1.1" xmlns="http://www.w3.org/2000/svg" width="36" height="32" viewBox="0 0 36 32">
<title>twitter</title>
<path d="M35.376 3.765c-1.269 0.659-2.638 1.092-4.055 1.299 1.451-0.998 2.572-2.579 3.099-4.48-1.368 0.941-2.885 1.6-4.484 1.976-1.302-1.619-3.132-2.56-5.209-2.56-3.874 0-7.039 3.614-7.039 8.075 0 0.64 0.066 1.261 0.181 1.845-5.868-0.339-11.094-3.558-14.573-8.433-0.61 1.186-0.956 2.579-0.956 4.047 0 2.805 1.236 5.289 3.149 6.701-1.17 0-2.258-0.377-3.215-0.941v0.057c0 3.915 2.44 7.191 5.671 7.925-1.037 0.324-2.126 0.369-3.182 0.132 0.448 1.605 1.325 3.009 2.507 4.015s2.612 1.564 4.087 1.594c-2.5 2.26-5.598 3.481-8.786 3.464-0.56 0-1.121-0.038-1.681-0.113 3.132 2.297 6.858 3.633 10.847 3.633 12.99 0 20.128-12.311 20.128-22.984 0-0.358 0-0.696-0.016-1.054 1.385-1.129 2.572-2.56 3.528-4.198z"></path>
</svg>
