<!-- Generated by IcoMoon.io -->
<svg version="1.1" xmlns="http://www.w3.org/2000/svg" width="36" height="32" viewBox="0 0 36 32">
<title>youtube</title>
<path d="M14.507 22.857l9.411-6.857-9.411-6.857v13.714zM35.469 4.96c0.236 1.074 0.399 2.514 0.508 4.343 0.127 1.829 0.181 3.406 0.181 4.777l0.109 1.92c0 5.006-0.29 8.686-0.798 11.040-0.453 2.057-1.505 3.383-3.137 3.954-0.852 0.297-2.412 0.503-4.805 0.64-2.357 0.16-4.515 0.229-6.51 0.229l-2.883 0.137c-7.598 0-12.331-0.366-14.198-1.006-1.632-0.571-2.684-1.897-3.137-3.954-0.236-1.074-0.399-2.514-0.508-4.343-0.127-1.829-0.181-3.406-0.181-4.777l-0.109-1.92c0-5.006 0.29-8.686 0.798-11.040 0.453-2.057 1.505-3.383 3.137-3.954 0.852-0.297 2.412-0.503 4.805-0.64 2.357-0.16 4.515-0.229 6.51-0.229l2.883-0.137c7.598 0 12.331 0.366 14.198 1.006 1.632 0.571 2.684 1.897 3.137 3.954z"></path>
</svg>
